<svg width="500" height="500" viewBox="0 0 500 500" fill="none" xmlns="http://www.w3.org/2000/svg">
<path d="M239.25 204.178V215.031H210.356L210.356 295.801H199.05L199.05 215.031H170.157V204.178H239.25Z" fill="black"/>
<path d="M291.864 260.933H263.348L263.348 295.801H252.042L252.042 204.268H292.995C300.951 204.268 307.651 206.582 313.095 211.21C318.622 215.753 321.386 222.904 321.386 232.664C321.386 247.135 315.482 256.096 303.673 259.545L325.302 295.801H312.615L291.864 260.933ZM263.348 250.08H290.608C297.392 250.08 302.207 248.566 305.055 245.537C307.986 242.424 309.452 238.133 309.452 232.664C309.452 227.195 307.986 222.946 305.055 219.918C302.207 216.805 297.392 215.248 290.608 215.248H263.348V250.08Z" fill="black"/>
<path d="M417.055 253.271C417.055 268.079 413.872 278.89 407.507 285.705C401.142 292.436 391.805 295.801 379.494 295.801H376.73C364.419 295.801 355.081 292.436 348.716 285.705C342.351 278.89 339.169 268.079 339.169 253.271V204.178H350.475V252.261C350.475 259.413 351.228 265.302 352.736 269.93C354.327 274.473 357.133 278.007 361.153 280.531C365.173 282.97 370.826 284.19 378.112 284.19C385.398 284.19 391.051 282.97 395.071 280.531C399.091 278.007 401.854 274.473 403.362 269.93C404.953 265.302 405.749 259.413 405.749 252.261V204.178H417.055V253.271Z" fill="black"/>
<path d="M500 215.031H449.751V242.922H497.236V253.776H449.751V282.928H500L500 295.801H438.445L438.445 204.178H500V215.031Z" fill="black"/>
<path fill-rule="evenodd" clip-rule="evenodd" d="M140.38 249.99C140.38 287.76 109.76 318.38 71.9895 318.38C34.2187 318.38 3.59948 287.76 3.59948 249.99C3.59948 212.219 34.2187 181.599 71.9895 181.599C83.2923 181.599 93.947 184.339 103.334 189.188C99.5191 193.35 97.1859 198.9 97.1859 204.996C97.1859 205.056 97.1861 205.117 97.1865 205.177C97.1861 205.236 97.1859 205.296 97.1859 205.356C97.1859 218.079 107.5 228.393 120.223 228.393C120.282 228.393 120.342 228.392 120.402 228.392C120.462 228.392 120.522 228.393 120.582 228.393C126.032 228.393 131.047 226.527 135.022 223.406C138.471 231.575 140.38 240.556 140.38 249.99ZM137.648 220.425C141.144 216.385 143.259 211.118 143.259 205.356C143.259 192.633 132.945 182.319 120.223 182.319C115.1 182.319 110.368 183.991 106.543 186.819C106.406 186.744 106.269 186.669 106.131 186.595C95.9716 181.112 84.344 178 71.9895 178C32.2308 178 0 210.231 0 249.99C0 289.748 32.2308 321.979 71.9895 321.979C111.748 321.979 143.979 289.748 143.979 249.99C143.979 239.604 141.78 229.732 137.822 220.814C137.764 220.684 137.706 220.554 137.648 220.425ZM120.402 224.792C131.054 224.696 139.66 216.031 139.66 205.356C139.66 194.621 130.957 185.919 120.223 185.919C109.547 185.919 100.882 194.525 100.786 205.177C100.883 215.967 109.611 224.696 120.402 224.792Z" fill="black"/>
</svg>
